<?xml version="1.0" standalone="no"?>
<!DOCTYPE svg PUBLIC "-//W3C//DTD SVG 20010904//EN"
 "http://www.w3.org/TR/2001/REC-SVG-20010904/DTD/svg10.dtd">
<svg version="1.0" xmlns="http://www.w3.org/2000/svg"
 width="700.000000pt" height="700.000000pt" viewBox="0 0 700.000000 700.000000"
 preserveAspectRatio="xMidYMid meet">
<metadata>
Created by potrace 1.14, written by Peter Selinger 2001-2017
</metadata>
<g transform="translate(0.000000,700.000000) scale(0.100000,-0.100000)"
fill="#000000" stroke="none">
<path d="M2498 6974 c-2 -1 -41 -5 -88 -8 -47 -4 -92 -8 -100 -11 -8 -2 -35
-6 -60 -9 -171 -21 -448 -101 -649 -189 -215 -93 -473 -253 -642 -396 -311
-265 -577 -628 -734 -1001 -58 -137 -130 -371 -149 -485 -3 -16 -11 -66 -19
-110 -38 -208 -43 -486 -13 -755 6 -52 9 -70 21 -130 2 -14 7 -39 10 -56 14
-89 95 -362 129 -437 8 -17 31 -72 52 -121 73 -172 216 -403 357 -576 199
-245 493 -495 736 -626 29 -16 76 -41 104 -57 183 -98 528 -216 707 -242 24
-4 47 -8 50 -10 3 -1 30 -6 61 -9 31 -4 65 -8 75 -10 31 -6 237 -18 316 -18
134 0 399 25 483 46 6 2 28 6 50 11 306 59 633 197 926 392 l95 63 125 -123
c68 -68 135 -136 148 -151 l25 -26 -26 -28 c-101 -107 -115 -306 -32 -447 13
-22 306 -322 651 -666 649 -646 662 -658 803 -718 210 -90 474 -77 675 34 143
79 263 206 330 350 49 104 66 182 71 305 4 128 -10 210 -52 318 -56 141 -88
177 -740 827 -615 615 -634 632 -739 677 -36 16 -156 17 -213 2 -54 -14 -162
-72 -162 -86 0 -5 -4 -8 -9 -8 -8 0 -301 289 -301 298 0 2 13 21 28 41 197
255 397 738 446 1076 4 23 8 50 10 60 4 19 12 95 22 200 14 157 -1 461 -32
630 -2 11 -7 36 -10 55 -40 233 -176 600 -292 790 -12 19 -29 49 -38 65 -35
63 -155 233 -219 310 -301 362 -668 625 -1115 798 -62 24 -220 74 -257 82 -10
2 -48 10 -86 19 -67 16 -83 19 -167 31 -25 4 -56 8 -70 10 -74 12 -152 17
-312 19 -98 2 -179 2 -180 0z"/>
</g>
</svg>
